# xmcd CD database file
#
# Track frame offsets:
#	150
#	7190
#	19283
#	38958
#	63238
#	81667
#	97031
#	110639
#	133233
#	155340
#	177503
#	199923
#	217037
#	232686
#	245475
#	274420
#	287098
#	298140
#
# Disc length: 4077 seconds
#
# Revision: 1
# Processed by: cddbd v1.5.1PL2 Copyright (c) Steve Scherf et al.
# Submitted via: jetAudio 5
#
DISCID=1e0feb12
DTITLE=Chris "Jag" McLaughlin - Live From The Tooth Philsongs II
DYEAR=1900
DGENRE=
TTITLE0=Introduction
TTITLE1=Momma Don't 'Low (Allow)
TTITLE2=West Texas Cowboy
TTITLE3=Apples and Bananas
TTITLE4=Colfax County Dream
TTITLE5=Got my Mojo Working
TTITLE6=Winter of '29
TTITLE7=Milk Cow Blues
TTITLE8=10/27/79 (Runnin' with The Wind)
TTITLE9=Reason to Believe
TTITLE10=Edge of Texas
TTITLE11=Georgetown
TTITLE12=Paradise
TTITLE13=Smokestack Lightning
TTITLE14=Night Rider's Lament
TTITLE15=Take Me Home Country
TTITLE16=The Philmont Hymn
TTITLE17=The Philmont Hymn
EXTD=
EXTT0=
EXTT1=
EXTT2=
EXTT3=
EXTT4=
EXTT5=
EXTT6=
EXTT7=
EXTT8=
EXTT9=
EXTT10=
EXTT11=
EXTT12=
EXTT13=
EXTT14=
EXTT15=
EXTT16=
EXTT17=
PLAYORDER=
